<svg xmlns="http://www.w3.org/2000/svg" viewBox="0 0 480 360" width="480" height="360"><style>
.fl{animation:fl 6s ease-in-out infinite}.fl2{animation:fl 7.5s ease-in-out -2s infinite}.fl3{animation:fl 5s ease-in-out -1s infinite}
@keyframes fl{0%,100%{transform:translateY(0)}50%{transform:translateY(-9px)}}
.pu{animation:pu 2.6s ease-in-out infinite;transform-box:fill-box;transform-origin:center}
@keyframes pu{0%,100%{opacity:.55;transform:scale(1)}50%{opacity:1;transform:scale(1.05)}}
.da{stroke-dasharray:7 9;animation:da 2.4s linear infinite}@keyframes da{to{stroke-dashoffset:-64}}
.sw{animation:sw 4.4s ease-in-out infinite}@keyframes sw{0%{transform:translateY(0);opacity:0}12%{opacity:.9}88%{opacity:.9}100%{transform:translateY(357px);opacity:0}}
.tw{animation:tw 3s ease-in-out infinite;transform-box:fill-box;transform-origin:center}
@keyframes tw{0%,100%{opacity:.25;transform:scale(.8)}50%{opacity:1;transform:scale(1.15)}}
.bar{animation:bar 2.8s ease-in-out infinite;transform-box:fill-box;transform-origin:bottom}
@keyframes bar{0%,100%{transform:scaleY(1)}50%{transform:scaleY(.62)}}
.fly{animation:fly 5s ease-in-out infinite}@keyframes fly{0%,100%{transform:translate(0,0) rotate(0)}50%{transform:translate(10px,-12px) rotate(4deg)}}
@media (prefers-reduced-motion:reduce){*{animation:none!important}}
</style><defs></defs>
<g class="fl2"><rect x="70" y="60" width="340" height="230" rx="10" fill="#14141a" stroke="#fff" stroke-opacity=".14" stroke-width="1.5"/><path d="M70 84V60H94M386 60H410V84M410 266V290H386M94 290H70V266" fill="none" stroke="#ff0033" stroke-width="4" stroke-linecap="square"/>
<circle cx="170" cy="170" r="24" fill="#fafaf7"/><path d="M124.4 232.4c0-37.2 20.4-45.599999999999994 45.599999999999994-45.599999999999994s45.599999999999994 8.399999999999999 45.599999999999994 45.599999999999994z" fill="#ff3b5c"/><circle cx="240" cy="158" r="30" fill="#fafaf7"/><path d="M183.0 236.0c0-46.5 25.5-57.0 57.0-57.0s57.0 10.5 57.0 57.0z" fill="#ffb100"/><circle cx="312" cy="170" r="24" fill="#fafaf7"/><path d="M266.4 232.4c0-37.2 20.4-45.599999999999994 45.599999999999994-45.599999999999994s45.599999999999994 8.399999999999999 45.599999999999994 45.599999999999994z" fill="#22c55e"/>
<circle class="pu" cx="96" cy="86" r="6" fill="#ff0033"/><text x="110" y="90" font-family="ui-monospace,Menlo,Consolas,monospace" font-size="11" font-weight="700" fill="#fafaf7">REC</text>
<rect x="100" y="262" width="280" height="6" rx="3" fill="#fff" fill-opacity=".12"/><rect x="100" y="262" width="190" height="6" rx="3" fill="#ff0033"/></g>
<g class="fl"><circle cx="400" cy="300" r="34" fill="#17171c" stroke="#ffb100" stroke-width="4"/><circle cx="400" cy="300" r="16" fill="#0b0b0f" stroke="#fafaf7" stroke-opacity=".5" stroke-width="2"/><circle cx="394" cy="294" r="4" fill="#fafaf7" fill-opacity=".8"/></g>
<circle class="tw" style="animation-delay:0.0s" cx="44" cy="120" r="4" fill="#ffb100"/><circle class="tw" style="animation-delay:0.5s" cx="448" cy="100" r="4" fill="#ff3b5c"/><circle class="tw" style="animation-delay:1.0s" cx="54" cy="300" r="3" fill="#fafaf7"/></svg>